<?xml version="1.0" encoding="UTF-8"?>
<svg xmlns="http://www.w3.org/2000/svg" xmlns:xlink="http://www.w3.org/1999/xlink" width="2501" height="2501" viewBox="0 0 2501 2501">

<path fill-rule="evenodd" fill="rgb(19.993591%, 39.988708%, 39.988708%)" fill-opacity="1" d="M 1269.101562 758.589844 C 1278.328125 584.859375 1382.230469 652.539062 1325.390625 688.058594 C 1306.980469 699.558594 1285.480469 720.289062 1269.101562 758.589844 "/>
<path fill-rule="evenodd" fill="rgb(19.993591%, 39.988708%, 39.988708%)" fill-opacity="1" d="M 1232.578125 760.601562 C 1223.359375 586.859375 1119.449219 654.539062 1176.289062 690.058594 C 1194.699219 701.570312 1216.210938 722.300781 1232.578125 760.601562 "/>
<path fill-rule="evenodd" fill="rgb(19.993591%, 39.988708%, 39.988708%)" fill-opacity="1" d="M 1250.839844 545.191406 C 1235.109375 545.191406 1222.351562 557.949219 1222.351562 573.691406 C 1222.351562 589.429688 1235.109375 602.191406 1250.839844 602.191406 C 1266.578125 602.191406 1279.339844 589.429688 1279.339844 573.691406 C 1279.339844 557.949219 1266.578125 545.191406 1250.839844 545.191406 "/>
<path fill-rule="evenodd" fill="rgb(19.993591%, 39.988708%, 39.988708%)" fill-opacity="1" d="M 1072.429688 593 C 1058.800781 600.871094 1054.128906 618.300781 1062 631.929688 C 1069.871094 645.550781 1087.300781 650.21875 1100.921875 642.359375 C 1114.550781 634.488281 1119.21875 617.058594 1111.351562 603.429688 C 1103.488281 589.800781 1086.058594 585.128906 1072.429688 593 "/>
<path fill-rule="evenodd" fill="rgb(19.993591%, 39.988708%, 39.988708%)" fill-opacity="1" d="M 941.820312 723.609375 C 933.953125 737.238281 938.625 754.671875 952.253906 762.53125 C 965.878906 770.398438 983.308594 765.730469 991.175781 752.101562 C 999.046875 738.480469 994.375 721.050781 980.746094 713.179688 C 967.121094 705.308594 949.691406 709.980469 941.820312 723.609375 "/>
<path fill-rule="evenodd" fill="rgb(19.993591%, 39.988708%, 39.988708%)" fill-opacity="1" d="M 1429.261719 593 C 1415.628906 585.128906 1398.199219 589.800781 1390.328125 603.429688 C 1382.460938 617.058594 1387.128906 634.488281 1400.761719 642.359375 C 1414.390625 650.21875 1431.820312 645.550781 1439.691406 631.929688 C 1447.550781 618.300781 1442.878906 600.871094 1429.261719 593 "/>
<path fill-rule="evenodd" fill="rgb(19.993591%, 39.988708%, 39.988708%)" fill-opacity="1" d="M 1559.859375 723.609375 C 1552 709.980469 1534.570312 705.308594 1520.941406 713.179688 C 1507.308594 721.050781 1502.640625 738.480469 1510.511719 752.101562 C 1518.378906 765.730469 1535.808594 770.398438 1549.429688 762.53125 C 1563.058594 754.671875 1567.730469 737.238281 1559.859375 723.609375 "/>
<path fill-rule="evenodd" fill="rgb(19.993591%, 39.988708%, 39.988708%)" fill-opacity="1" d="M 1272.238281 925.371094 C 1372.210938 1053.75 1415.761719 946.269531 1353.148438 949.398438 C 1332.871094 950.421875 1305.289062 946.011719 1272.238281 925.371094 "/>
<path fill-rule="evenodd" fill="rgb(19.993591%, 39.988708%, 39.988708%)" fill-opacity="1" d="M 1229.429688 925.371094 C 1129.46875 1053.75 1085.921875 946.269531 1148.53125 949.398438 C 1168.808594 950.421875 1196.390625 946.011719 1229.429688 925.371094 "/>
<path fill-rule="evenodd" fill="rgb(19.993591%, 39.988708%, 39.988708%)" fill-opacity="1" d="M 1250.839844 873.53125 C 1235.109375 873.53125 1222.351562 886.289062 1222.351562 902.019531 C 1222.351562 917.761719 1235.109375 930.519531 1250.839844 930.519531 C 1266.578125 930.519531 1279.339844 917.761719 1279.339844 902.019531 C 1279.339844 886.289062 1266.578125 873.53125 1250.839844 873.53125 "/>
<path fill-rule="evenodd" fill="rgb(19.993591%, 39.988708%, 39.988708%)" fill-opacity="1" d="M 1250.839844 938.410156 C 1242.019531 938.410156 1234.859375 945.558594 1234.859375 954.390625 C 1234.859375 963.210938 1242.019531 970.359375 1250.839844 970.359375 C 1259.671875 970.359375 1266.820312 963.210938 1266.820312 954.390625 C 1266.820312 945.558594 1259.671875 938.410156 1250.839844 938.410156 "/>
<path fill-rule="evenodd" fill="rgb(19.993591%, 39.988708%, 39.988708%)" fill-opacity="1" d="M 1250.839844 989.890625 C 1244.878906 989.890625 1240.050781 994.730469 1240.050781 1000.691406 C 1240.050781 1006.648438 1244.878906 1011.480469 1250.839844 1011.480469 C 1256.808594 1011.480469 1261.640625 1006.648438 1261.640625 1000.691406 C 1261.640625 994.730469 1256.808594 989.890625 1250.839844 989.890625 "/>
<path fill-rule="evenodd" fill="rgb(19.993591%, 39.988708%, 39.988708%)" fill-opacity="1" d="M 556.40625 980.28125 C 458.859375 1016.578125 331.488281 908.671875 297.9375 945.421875 C 305.902344 953.710938 310.800781 964.980469 310.800781 977.378906 C 310.800781 1002.871094 290.144531 1023.519531 264.660156 1023.519531 C 194.480469 1023.570312 183.761719 875.101562 329.511719 904.21875 C 403.464844 919 488.703125 982.839844 556.40625 980.28125 "/>
<path fill-rule="evenodd" fill="rgb(19.993591%, 39.988708%, 39.988708%)" fill-opacity="1" d="M 484.652344 985.78125 C 402.921875 977.820312 392.085938 990.378906 391.335938 1003.570312 C 397.992188 1004.378906 404.367188 1007.679688 408.9375 1013.289062 C 418.332031 1024.828125 416.601562 1041.800781 405.058594 1051.191406 C 379.71875 1071.828125 338.46875 1039.628906 359.734375 1001.480469 C 372.507812 978.519531 402.835938 966.539062 467.476562 972.75 L 484.652344 985.78125 "/>
<path fill-rule="evenodd" fill="rgb(19.993591%, 39.988708%, 39.988708%)" fill-opacity="1" d="M 771.695312 908.21875 C 674.144531 871.910156 546.777344 979.820312 513.226562 943.070312 C 521.191406 934.789062 526.089844 923.519531 526.089844 911.109375 C 526.089844 885.628906 505.433594 864.96875 479.949219 864.96875 C 409.769531 864.929688 399.050781 1013.398438 544.800781 984.269531 C 618.753906 969.488281 703.992188 905.648438 771.695312 908.21875 "/>
<path fill-rule="evenodd" fill="rgb(19.993591%, 39.988708%, 39.988708%)" fill-opacity="1" d="M 699.941406 902.710938 C 618.210938 910.671875 607.375 898.109375 606.625 884.921875 C 613.28125 884.109375 619.65625 880.820312 624.226562 875.199219 C 633.621094 863.671875 631.890625 846.699219 620.347656 837.300781 C 595.007812 816.671875 553.757812 848.859375 575.019531 887.019531 C 587.796875 909.96875 618.125 921.960938 682.765625 915.75 L 699.941406 902.710938 "/>
<path fill-rule="evenodd" fill="rgb(19.993591%, 39.988708%, 39.988708%)" fill-opacity="1" d="M 992.09375 980.859375 C 894.546875 1017.160156 767.179688 909.25 733.625 946.011719 C 741.589844 954.289062 746.488281 965.558594 746.488281 977.960938 C 746.488281 1003.449219 725.832031 1024.101562 700.347656 1024.101562 C 630.171875 1024.148438 619.449219 875.679688 765.199219 904.808594 C 839.152344 919.578125 924.390625 983.421875 992.09375 980.859375 "/>
<path fill-rule="evenodd" fill="rgb(19.993591%, 39.988708%, 39.988708%)" fill-opacity="1" d="M 920.339844 986.359375 C 838.609375 978.398438 827.773438 990.960938 827.023438 1004.148438 C 833.679688 1004.96875 840.058594 1008.261719 844.625 1013.878906 C 854.019531 1025.410156 852.289062 1042.378906 840.746094 1051.769531 C 815.40625 1072.410156 774.15625 1040.210938 795.421875 1002.058594 C 808.195312 979.109375 838.523438 967.121094 903.164062 973.328125 L 920.339844 986.359375 "/>
<path fill-rule="evenodd" fill="rgb(19.993591%, 39.988708%, 39.988708%)" fill-opacity="1" d="M 1207.378906 908.800781 C 1109.828125 872.488281 982.46875 980.410156 948.914062 943.648438 C 956.878906 935.371094 961.777344 924.101562 961.777344 911.691406 C 961.777344 886.210938 941.121094 865.550781 915.636719 865.550781 C 845.460938 865.511719 834.738281 1013.980469 980.488281 984.851562 C 1054.441406 970.070312 1139.679688 906.230469 1207.378906 908.800781 "/>
<path fill-rule="evenodd" fill="rgb(19.993591%, 39.988708%, 39.988708%)" fill-opacity="1" d="M 1135.628906 903.289062 C 1053.898438 911.261719 1043.058594 898.691406 1042.308594 885.511719 C 1048.96875 884.691406 1055.351562 881.398438 1059.910156 875.78125 C 1069.308594 864.25 1067.578125 847.28125 1056.039062 837.890625 C 1030.699219 817.25 989.445312 849.441406 1010.710938 887.601562 C 1023.480469 910.550781 1053.808594 922.539062 1118.449219 916.328125 L 1135.628906 903.289062 "/>
<path fill-rule="evenodd" fill="rgb(19.993591%, 39.988708%, 39.988708%)" fill-opacity="1" d="M 846.703125 917.269531 C 697.019531 828.578125 805.144531 767.871094 810.277344 834.699219 C 811.941406 856.339844 820.347656 885.011719 846.703125 917.269531 "/>
<path fill-rule="evenodd" fill="rgb(19.993591%, 39.988708%, 39.988708%)" fill-opacity="1" d="M 769.636719 887.71875 C 667.363281 746.96875 617.007812 860.300781 684.027344 859.171875 C 705.734375 858.800781 735.054688 864.5 769.636719 887.71875 "/>
<path fill-rule="evenodd" fill="rgb(19.993591%, 39.988708%, 39.988708%)" fill-opacity="1" d="M 422.003906 930.539062 C 400.902344 790.609375 322.09375 853.558594 370.898438 877.851562 C 386.703125 885.71875 405.738281 900.808594 422.003906 930.539062 "/>
<path fill-rule="evenodd" fill="rgb(19.993591%, 39.988708%, 39.988708%)" fill-opacity="1" d="M 355.078125 901.050781 C 295.484375 807.378906 258.949219 877.570312 301.679688 879.488281 C 315.515625 880.109375 333.96875 884.890625 355.078125 901.050781 "/>
<path fill-rule="evenodd" fill="rgb(19.993591%, 39.988708%, 39.988708%)" fill-opacity="1" d="M 247.789062 868.800781 C 241.824219 868.800781 236.992188 873.628906 236.992188 879.589844 C 236.992188 885.558594 241.824219 890.390625 247.789062 890.390625 C 253.75 890.390625 258.585938 885.558594 258.585938 879.589844 C 258.585938 873.628906 253.75 868.800781 247.789062 868.800781 "/>
<path fill-rule="evenodd" fill="rgb(19.993591%, 39.988708%, 39.988708%)" fill-opacity="1" d="M 633.582031 966.578125 C 544.800781 1116.199219 484.152344 1008.039062 550.992188 1002.949219 C 572.636719 1001.300781 601.304688 992.910156 633.582031 966.578125 "/>
<path fill-rule="evenodd" fill="rgb(19.993591%, 39.988708%, 39.988708%)" fill-opacity="1" d="M 1078.691406 957.191406 C 910.226562 1000.660156 997.148438 1089.101562 1020.699219 1026.339844 C 1028.328125 1006.019531 1044.390625 980.839844 1078.691406 957.191406 "/>
<path fill-rule="evenodd" fill="rgb(19.993591%, 39.988708%, 39.988708%)" fill-opacity="1" d="M 913.742188 1021.910156 C 904.917969 1021.910156 897.765625 1029.070312 897.765625 1037.890625 C 897.765625 1046.71875 904.917969 1053.871094 913.742188 1053.871094 C 922.566406 1053.871094 929.722656 1046.71875 929.722656 1037.890625 C 929.722656 1029.070312 922.566406 1021.910156 913.742188 1021.910156 "/>
<path fill-rule="evenodd" fill="rgb(19.993591%, 39.988708%, 39.988708%)" fill-opacity="1" d="M 870.382812 820.441406 C 863.601562 820.441406 858.105469 825.941406 858.105469 832.71875 C 858.105469 839.5 863.601562 845 870.382812 845 C 877.164062 845 882.664062 839.5 882.664062 832.71875 C 882.664062 825.941406 877.164062 820.441406 870.382812 820.441406 "/>
<path fill-rule="evenodd" fill="rgb(19.993591%, 39.988708%, 39.988708%)" fill-opacity="1" d="M 1945.269531 980.28125 C 2042.820312 1016.578125 2170.191406 908.671875 2203.738281 945.421875 C 2195.78125 953.710938 2190.878906 964.980469 2190.878906 977.378906 C 2190.878906 1002.871094 2211.539062 1023.519531 2237.019531 1023.519531 C 2307.199219 1023.570312 2317.921875 875.101562 2172.171875 904.21875 C 2098.21875 919 2012.980469 982.839844 1945.269531 980.28125 "/>
<path fill-rule="evenodd" fill="rgb(19.993591%, 39.988708%, 39.988708%)" fill-opacity="1" d="M 2017.03125 985.78125 C 2098.761719 977.820312 2109.589844 990.378906 2110.339844 1003.570312 C 2103.691406 1004.378906 2097.308594 1007.679688 2092.738281 1013.289062 C 2083.351562 1024.828125 2085.078125 1041.800781 2096.621094 1051.191406 C 2121.960938 1071.828125 2163.210938 1039.628906 2141.949219 1001.480469 C 2129.171875 978.519531 2098.839844 966.539062 2034.199219 972.75 L 2017.03125 985.78125 "/>
<path fill-rule="evenodd" fill="rgb(19.993591%, 39.988708%, 39.988708%)" fill-opacity="1" d="M 1729.980469 908.21875 C 1827.53125 871.910156 1954.898438 979.820312 1988.460938 943.070312 C 1980.488281 934.789062 1975.589844 923.519531 1975.589844 911.109375 C 1975.589844 885.628906 1996.25 864.96875 2021.730469 864.96875 C 2091.910156 864.929688 2102.628906 1013.398438 1956.878906 984.269531 C 1882.929688 969.488281 1797.691406 905.648438 1729.980469 908.21875 "/>
<path fill-rule="evenodd" fill="rgb(19.993591%, 39.988708%, 39.988708%)" fill-opacity="1" d="M 1801.738281 902.710938 C 1883.46875 910.671875 1894.308594 898.109375 1895.058594 884.921875 C 1888.398438 884.109375 1882.019531 880.820312 1877.449219 875.199219 C 1868.058594 863.671875 1869.789062 846.699219 1881.328125 837.300781 C 1906.671875 816.671875 1947.921875 848.859375 1926.660156 887.019531 C 1913.878906 909.96875 1883.550781 921.960938 1818.910156 915.75 L 1801.738281 902.710938 "/>
<path fill-rule="evenodd" fill="rgb(19.993591%, 39.988708%, 39.988708%)" fill-opacity="1" d="M 1509.578125 980.859375 C 1607.128906 1017.160156 1734.5 909.25 1768.058594 946.011719 C 1760.089844 954.289062 1755.191406 965.558594 1755.191406 977.960938 C 1755.191406 1003.449219 1775.851562 1024.101562 1801.328125 1024.101562 C 1871.511719 1024.148438 1882.230469 875.679688 1736.480469 904.808594 C 1662.53125 919.578125 1577.289062 983.421875 1509.578125 980.859375 "/>
<path fill-rule="evenodd" fill="rgb(19.993591%, 39.988708%, 39.988708%)" fill-opacity="1" d="M 1581.339844 986.359375 C 1663.070312 978.398438 1673.910156 990.960938 1674.660156 1004.148438 C 1668 1004.96875 1661.621094 1008.261719 1657.050781 1013.878906 C 1647.660156 1025.410156 1649.390625 1042.378906 1660.929688 1051.769531 C 1686.269531 1072.410156 1727.519531 1040.210938 1706.261719 1002.058594 C 1693.480469 979.109375 1663.148438 967.121094 1598.511719 973.328125 L 1581.339844 986.359375 "/>
<path fill-rule="evenodd" fill="rgb(19.993591%, 39.988708%, 39.988708%)" fill-opacity="1" d="M 1294.300781 908.800781 C 1391.839844 872.488281 1519.210938 980.410156 1552.769531 943.648438 C 1544.800781 935.371094 1539.898438 924.101562 1539.898438 911.691406 C 1539.898438 886.210938 1560.558594 865.550781 1586.039062 865.550781 C 1656.21875 865.511719 1666.941406 1013.980469 1521.191406 984.851562 C 1447.238281 970.070312 1362 906.230469 1294.300781 908.800781 "/>
<path fill-rule="evenodd" fill="rgb(19.993591%, 39.988708%, 39.988708%)" fill-opacity="1" d="M 1366.050781 903.289062 C 1447.78125 911.261719 1458.621094 898.691406 1459.371094 885.511719 C 1452.710938 884.691406 1446.328125 881.398438 1441.769531 875.78125 C 1432.371094 864.25 1434.101562 847.28125 1445.640625 837.890625 C 1470.980469 817.25 1512.230469 849.441406 1490.96875 887.601562 C 1478.199219 910.550781 1447.871094 922.539062 1383.230469 916.328125 L 1366.050781 903.289062 "/>
<path fill-rule="evenodd" fill="rgb(19.993591%, 39.988708%, 39.988708%)" fill-opacity="1" d="M 1654.980469 917.269531 C 1804.660156 828.578125 1696.539062 767.871094 1691.398438 834.699219 C 1689.738281 856.339844 1681.328125 885.011719 1654.980469 917.269531 "/>
<path fill-rule="evenodd" fill="rgb(19.993591%, 39.988708%, 39.988708%)" fill-opacity="1" d="M 1732.039062 887.71875 C 1834.308594 746.96875 1884.671875 860.300781 1817.648438 859.171875 C 1795.949219 858.800781 1766.628906 864.5 1732.039062 887.71875 "/>
<path fill-rule="evenodd" fill="rgb(19.993591%, 39.988708%, 39.988708%)" fill-opacity="1" d="M 2079.679688 930.539062 C 2100.78125 790.609375 2179.589844 853.558594 2130.78125 877.851562 C 2114.980469 885.71875 2095.941406 900.808594 2079.679688 930.539062 "/>
<path fill-rule="evenodd" fill="rgb(19.993591%, 39.988708%, 39.988708%)" fill-opacity="1" d="M 2146.601562 901.050781 C 2206.199219 807.378906 2242.730469 877.570312 2200 879.488281 C 2186.160156 880.109375 2167.710938 884.890625 2146.601562 901.050781 "/>
<path fill-rule="evenodd" fill="rgb(19.993591%, 39.988708%, 39.988708%)" fill-opacity="1" d="M 2253.890625 868.800781 C 2259.851562 868.800781 2264.691406 873.628906 2264.691406 879.589844 C 2264.691406 885.558594 2259.851562 890.390625 2253.890625 890.390625 C 2247.929688 890.390625 2243.089844 885.558594 2243.089844 879.589844 C 2243.089844 873.628906 2247.929688 868.800781 2253.890625 868.800781 "/>
<path fill-rule="evenodd" fill="rgb(19.993591%, 39.988708%, 39.988708%)" fill-opacity="1" d="M 1868.101562 966.578125 C 1956.878906 1116.199219 2017.53125 1008.039062 1950.691406 1002.949219 C 1929.039062 1001.300781 1900.378906 992.910156 1868.101562 966.578125 "/>
<path fill-rule="evenodd" fill="rgb(19.993591%, 39.988708%, 39.988708%)" fill-opacity="1" d="M 1422.988281 957.191406 C 1591.449219 1000.660156 1504.53125 1089.101562 1480.980469 1026.339844 C 1473.351562 1006.019531 1457.289062 980.839844 1422.988281 957.191406 "/>
<path fill-rule="evenodd" fill="rgb(19.993591%, 39.988708%, 39.988708%)" fill-opacity="1" d="M 1587.941406 1021.910156 C 1596.761719 1021.910156 1603.921875 1029.070312 1603.921875 1037.890625 C 1603.921875 1046.71875 1596.761719 1053.871094 1587.941406 1053.871094 C 1579.109375 1053.871094 1571.960938 1046.71875 1571.960938 1037.890625 C 1571.960938 1029.070312 1579.109375 1021.910156 1587.941406 1021.910156 "/>
<path fill-rule="evenodd" fill="rgb(19.993591%, 39.988708%, 39.988708%)" fill-opacity="1" d="M 1631.300781 820.441406 C 1638.078125 820.441406 1643.578125 825.941406 1643.578125 832.71875 C 1643.578125 839.5 1638.078125 845 1631.300781 845 C 1624.511719 845 1619.019531 839.5 1619.019531 832.71875 C 1619.019531 825.941406 1624.511719 820.441406 1631.300781 820.441406 "/>
<path fill-rule="evenodd" fill="rgb(19.993591%, 39.988708%, 39.988708%)" fill-opacity="1" d="M 1218.421875 883.761719 C 1204.460938 620.851562 1047.21875 723.269531 1133.238281 777.019531 C 1161.101562 794.421875 1193.640625 825.789062 1218.421875 883.761719 "/>
<path fill-rule="evenodd" fill="rgb(19.993591%, 39.988708%, 39.988708%)" fill-opacity="1" d="M 1283.269531 883.761719 C 1297.230469 620.851562 1454.46875 723.269531 1368.449219 777.019531 C 1340.589844 794.421875 1308.050781 825.789062 1283.269531 883.761719 "/>
<path fill-rule="evenodd" fill="rgb(19.993591%, 39.988708%, 39.988708%)" fill-opacity="1" d="M 1250.839844 793.800781 C 1243 793.800781 1236.648438 800.160156 1236.648438 807.988281 C 1236.648438 815.828125 1243 822.191406 1250.839844 822.191406 C 1258.679688 822.191406 1265.039062 815.828125 1265.039062 807.988281 C 1265.039062 800.160156 1258.679688 793.800781 1250.839844 793.800781 "/>
<path fill-rule="evenodd" fill="rgb(19.993591%, 39.988708%, 39.988708%)" fill-opacity="1" d="M 1250.839844 644.910156 C 1243 644.910156 1236.648438 651.269531 1236.648438 659.109375 C 1236.648438 666.949219 1243 673.308594 1250.839844 673.308594 C 1258.679688 673.308594 1265.039062 666.949219 1265.039062 659.109375 C 1265.039062 651.269531 1258.679688 644.910156 1250.839844 644.910156 "/>
<path fill-rule="evenodd" fill="rgb(19.993591%, 39.988708%, 39.988708%)" fill-opacity="1" d="M 1269.101562 1741.726562 C 1278.328125 1915.460938 1382.230469 1847.78125 1325.390625 1812.261719 C 1306.980469 1800.761719 1285.480469 1780.027344 1269.101562 1741.726562 "/>
<path fill-rule="evenodd" fill="rgb(19.993591%, 39.988708%, 39.988708%)" fill-opacity="1" d="M 1232.578125 1739.71875 C 1223.359375 1913.453125 1119.449219 1845.777344 1176.289062 1810.257812 C 1194.699219 1798.753906 1216.210938 1778.023438 1232.578125 1739.71875 "/>
<path fill-rule="evenodd" fill="rgb(19.993591%, 39.988708%, 39.988708%)" fill-opacity="1" d="M 1250.839844 1955.125 C 1235.109375 1955.125 1222.351562 1942.363281 1222.351562 1926.628906 C 1222.351562 1910.894531 1235.109375 1898.136719 1250.839844 1898.136719 C 1266.578125 1898.136719 1279.339844 1910.894531 1279.339844 1926.628906 C 1279.339844 1942.363281 1266.578125 1955.125 1250.839844 1955.125 "/>
<path fill-rule="evenodd" fill="rgb(19.993591%, 39.988708%, 39.988708%)" fill-opacity="1" d="M 1072.429688 1907.320312 C 1058.800781 1899.449219 1054.128906 1882.023438 1062 1868.394531 C 1069.871094 1854.765625 1087.300781 1850.097656 1100.921875 1857.964844 C 1114.550781 1865.832031 1119.21875 1883.261719 1111.351562 1896.890625 C 1103.488281 1910.515625 1086.058594 1915.1875 1072.429688 1907.320312 "/>
<path fill-rule="evenodd" fill="rgb(19.993591%, 39.988708%, 39.988708%)" fill-opacity="1" d="M 941.820312 1776.710938 C 933.953125 1763.085938 938.625 1745.65625 952.253906 1737.785156 C 965.878906 1729.917969 983.308594 1734.589844 991.175781 1748.214844 C 999.046875 1761.84375 994.375 1779.273438 980.746094 1787.140625 C 967.121094 1795.007812 949.691406 1790.339844 941.820312 1776.710938 "/>
<path fill-rule="evenodd" fill="rgb(19.993591%, 39.988708%, 39.988708%)" fill-opacity="1" d="M 1429.261719 1907.320312 C 1415.628906 1915.1875 1398.199219 1910.515625 1390.328125 1896.890625 C 1382.460938 1883.261719 1387.128906 1865.832031 1400.761719 1857.964844 C 1414.390625 1850.097656 1431.820312 1854.765625 1439.691406 1868.394531 C 1447.550781 1882.023438 1442.878906 1899.449219 1429.261719 1907.320312 "/>
<path fill-rule="evenodd" fill="rgb(19.993591%, 39.988708%, 39.988708%)" fill-opacity="1" d="M 1559.859375 1776.710938 C 1552 1790.339844 1534.570312 1795.007812 1520.941406 1787.140625 C 1507.308594 1779.273438 1502.640625 1761.84375 1510.511719 1748.214844 C 1518.378906 1734.589844 1535.808594 1729.917969 1549.429688 1737.785156 C 1563.058594 1745.65625 1567.730469 1763.085938 1559.859375 1776.710938 "/>
<path fill-rule="evenodd" fill="rgb(19.993591%, 39.988708%, 39.988708%)" fill-opacity="1" d="M 1272.238281 1574.945312 C 1372.210938 1446.570312 1415.761719 1554.050781 1353.148438 1550.914062 C 1332.871094 1549.902344 1305.289062 1554.3125 1272.238281 1574.945312 "/>
<path fill-rule="evenodd" fill="rgb(19.993591%, 39.988708%, 39.988708%)" fill-opacity="1" d="M 1229.429688 1574.945312 C 1129.46875 1446.570312 1085.921875 1554.050781 1148.53125 1550.914062 C 1168.808594 1549.902344 1196.390625 1554.3125 1229.429688 1574.945312 "/>
<path fill-rule="evenodd" fill="rgb(19.993591%, 39.988708%, 39.988708%)" fill-opacity="1" d="M 1250.839844 1626.792969 C 1235.109375 1626.792969 1222.351562 1614.035156 1222.351562 1598.296875 C 1222.351562 1582.5625 1235.109375 1569.804688 1250.839844 1569.804688 C 1266.578125 1569.804688 1279.339844 1582.5625 1279.339844 1598.296875 C 1279.339844 1614.035156 1266.578125 1626.792969 1250.839844 1626.792969 "/>
<path fill-rule="evenodd" fill="rgb(19.993591%, 39.988708%, 39.988708%)" fill-opacity="1" d="M 1250.839844 1561.914062 C 1242.019531 1561.914062 1234.859375 1554.757812 1234.859375 1545.933594 C 1234.859375 1537.109375 1242.019531 1529.953125 1250.839844 1529.953125 C 1259.671875 1529.953125 1266.820312 1537.109375 1266.820312 1545.933594 C 1266.820312 1554.757812 1259.671875 1561.914062 1250.839844 1561.914062 "/>
<path fill-rule="evenodd" fill="rgb(19.993591%, 39.988708%, 39.988708%)" fill-opacity="1" d="M 1250.839844 1510.429688 C 1244.878906 1510.429688 1240.050781 1505.59375 1240.050781 1499.628906 C 1240.050781 1493.671875 1244.878906 1488.828125 1250.839844 1488.828125 C 1256.808594 1488.828125 1261.640625 1493.671875 1261.640625 1499.628906 C 1261.640625 1505.59375 1256.808594 1510.429688 1250.839844 1510.429688 "/>
<path fill-rule="evenodd" fill="rgb(19.993591%, 39.988708%, 39.988708%)" fill-opacity="1" d="M 556.40625 1520.042969 C 458.859375 1483.738281 331.488281 1591.648438 297.9375 1554.898438 C 305.902344 1546.613281 310.800781 1535.34375 310.800781 1522.9375 C 310.800781 1497.449219 290.144531 1476.800781 264.660156 1476.800781 C 194.480469 1476.75 183.761719 1625.222656 329.511719 1596.09375 C 403.464844 1581.316406 488.703125 1517.476562 556.40625 1520.042969 "/>
<path fill-rule="evenodd" fill="rgb(19.993591%, 39.988708%, 39.988708%)" fill-opacity="1" d="M 484.652344 1514.539062 C 402.921875 1522.5 392.085938 1509.9375 391.335938 1496.75 C 397.992188 1495.941406 404.367188 1492.640625 408.9375 1487.03125 C 418.332031 1475.488281 416.601562 1458.519531 405.058594 1449.128906 C 379.71875 1428.488281 338.46875 1460.691406 359.734375 1498.839844 C 372.507812 1521.796875 402.835938 1533.78125 467.476562 1527.570312 L 484.652344 1514.539062 "/>
<path fill-rule="evenodd" fill="rgb(19.993591%, 39.988708%, 39.988708%)" fill-opacity="1" d="M 771.695312 1592.101562 C 674.144531 1628.410156 546.777344 1520.496094 513.226562 1557.25 C 521.191406 1565.53125 526.089844 1576.800781 526.089844 1589.207031 C 526.089844 1614.691406 505.433594 1635.347656 479.949219 1635.347656 C 409.769531 1635.394531 399.050781 1486.921875 544.800781 1516.050781 C 618.753906 1530.828125 703.992188 1594.667969 771.695312 1592.101562 "/>
<path fill-rule="evenodd" fill="rgb(19.993591%, 39.988708%, 39.988708%)" fill-opacity="1" d="M 699.941406 1597.605469 C 618.210938 1589.644531 607.375 1602.207031 606.625 1615.394531 C 613.28125 1616.210938 619.65625 1619.503906 624.226562 1625.121094 C 633.621094 1636.652344 631.890625 1653.621094 620.347656 1663.015625 C 595.007812 1683.652344 553.757812 1651.457031 575.019531 1613.300781 C 587.796875 1590.351562 618.125 1578.363281 682.765625 1584.574219 L 699.941406 1597.605469 "/>
<path fill-rule="evenodd" fill="rgb(19.993591%, 39.988708%, 39.988708%)" fill-opacity="1" d="M 992.09375 1519.460938 C 894.546875 1483.160156 767.179688 1591.066406 733.625 1554.316406 C 741.589844 1546.03125 746.488281 1534.761719 746.488281 1522.355469 C 746.488281 1496.871094 725.832031 1476.21875 700.347656 1476.21875 C 630.171875 1476.171875 619.449219 1624.640625 765.199219 1595.511719 C 839.152344 1580.734375 924.390625 1516.898438 992.09375 1519.460938 "/>
<path fill-rule="evenodd" fill="rgb(19.993591%, 39.988708%, 39.988708%)" fill-opacity="1" d="M 920.339844 1513.957031 C 838.609375 1521.917969 827.773438 1509.355469 827.023438 1496.171875 C 833.679688 1495.351562 840.058594 1492.058594 844.625 1486.441406 C 854.019531 1474.910156 852.289062 1457.941406 840.746094 1448.550781 C 815.40625 1427.910156 774.15625 1460.109375 795.421875 1498.261719 C 808.195312 1521.214844 838.523438 1533.199219 903.164062 1526.988281 L 920.339844 1513.957031 "/>
<path fill-rule="evenodd" fill="rgb(19.993591%, 39.988708%, 39.988708%)" fill-opacity="1" d="M 1207.378906 1591.519531 C 1109.828125 1627.828125 982.46875 1519.914062 948.914062 1556.667969 C 956.878906 1564.949219 961.777344 1576.21875 961.777344 1588.625 C 961.777344 1614.109375 941.121094 1634.765625 915.636719 1634.765625 C 845.460938 1634.8125 834.738281 1486.339844 980.488281 1515.46875 C 1054.441406 1530.246094 1139.679688 1594.085938 1207.378906 1591.519531 "/>
<path fill-rule="evenodd" fill="rgb(19.993591%, 39.988708%, 39.988708%)" fill-opacity="1" d="M 1135.628906 1597.023438 C 1053.898438 1589.066406 1043.058594 1601.625 1042.308594 1614.8125 C 1048.96875 1615.628906 1055.351562 1618.921875 1059.910156 1624.539062 C 1069.308594 1636.070312 1067.578125 1653.039062 1056.039062 1662.433594 C 1030.699219 1683.070312 989.445312 1650.875 1010.710938 1612.71875 C 1023.480469 1589.769531 1053.808594 1577.78125 1118.449219 1583.992188 L 1135.628906 1597.023438 "/>
<path fill-rule="evenodd" fill="rgb(19.993591%, 39.988708%, 39.988708%)" fill-opacity="1" d="M 846.703125 1583.054688 C 697.019531 1671.734375 805.144531 1732.453125 810.277344 1665.621094 C 811.941406 1643.976562 820.347656 1615.316406 846.703125 1583.054688 "/>
<path fill-rule="evenodd" fill="rgb(19.993591%, 39.988708%, 39.988708%)" fill-opacity="1" d="M 769.636719 1612.597656 C 667.363281 1753.34375 617.007812 1640.023438 684.027344 1641.152344 C 705.734375 1641.519531 735.054688 1635.824219 769.636719 1612.597656 "/>
<path fill-rule="evenodd" fill="rgb(19.993591%, 39.988708%, 39.988708%)" fill-opacity="1" d="M 422.003906 1569.78125 C 400.902344 1709.707031 322.09375 1646.765625 370.898438 1622.46875 C 386.703125 1614.601562 405.738281 1599.503906 422.003906 1569.78125 "/>
<path fill-rule="evenodd" fill="rgb(19.993591%, 39.988708%, 39.988708%)" fill-opacity="1" d="M 355.078125 1599.273438 C 295.484375 1692.941406 258.949219 1622.753906 301.679688 1620.832031 C 315.515625 1620.210938 333.96875 1615.429688 355.078125 1599.273438 "/>
<path fill-rule="evenodd" fill="rgb(19.993591%, 39.988708%, 39.988708%)" fill-opacity="1" d="M 247.789062 1631.523438 C 241.824219 1631.523438 236.992188 1626.6875 236.992188 1620.726562 C 236.992188 1614.761719 241.824219 1609.929688 247.789062 1609.929688 C 253.75 1609.929688 258.585938 1614.761719 258.585938 1620.726562 C 258.585938 1626.6875 253.75 1631.523438 247.789062 1631.523438 "/>
<path fill-rule="evenodd" fill="rgb(19.993591%, 39.988708%, 39.988708%)" fill-opacity="1" d="M 633.582031 1533.738281 C 544.800781 1384.121094 484.152344 1492.28125 550.992188 1497.371094 C 572.636719 1499.019531 601.304688 1507.40625 633.582031 1533.738281 "/>
<path fill-rule="evenodd" fill="rgb(19.993591%, 39.988708%, 39.988708%)" fill-opacity="1" d="M 1078.691406 1543.125 C 910.226562 1499.660156 997.148438 1411.21875 1020.699219 1473.980469 C 1028.328125 1494.300781 1044.390625 1519.484375 1078.691406 1543.125 "/>
<path fill-rule="evenodd" fill="rgb(19.993591%, 39.988708%, 39.988708%)" fill-opacity="1" d="M 913.742188 1478.410156 C 904.917969 1478.410156 897.765625 1471.25 897.765625 1462.429688 C 897.765625 1453.601562 904.917969 1446.449219 913.742188 1446.449219 C 922.566406 1446.449219 929.722656 1453.601562 929.722656 1462.429688 C 929.722656 1471.25 922.566406 1478.410156 913.742188 1478.410156 "/>
<path fill-rule="evenodd" fill="rgb(19.993591%, 39.988708%, 39.988708%)" fill-opacity="1" d="M 870.382812 1679.878906 C 863.601562 1679.878906 858.105469 1674.382812 858.105469 1667.601562 C 858.105469 1660.820312 863.601562 1655.320312 870.382812 1655.320312 C 877.164062 1655.320312 882.664062 1660.820312 882.664062 1667.601562 C 882.664062 1674.382812 877.164062 1679.878906 870.382812 1679.878906 "/>
<path fill-rule="evenodd" fill="rgb(19.993591%, 39.988708%, 39.988708%)" fill-opacity="1" d="M 1945.269531 1520.042969 C 2042.820312 1483.738281 2170.191406 1591.648438 2203.738281 1554.898438 C 2195.78125 1546.613281 2190.878906 1535.34375 2190.878906 1522.9375 C 2190.878906 1497.449219 2211.539062 1476.800781 2237.019531 1476.800781 C 2307.199219 1476.75 2317.921875 1625.222656 2172.171875 1596.09375 C 2098.21875 1581.316406 2012.980469 1517.476562 1945.269531 1520.042969 "/>
<path fill-rule="evenodd" fill="rgb(19.993591%, 39.988708%, 39.988708%)" fill-opacity="1" d="M 2017.03125 1514.539062 C 2098.761719 1522.5 2109.589844 1509.9375 2110.339844 1496.75 C 2103.691406 1495.941406 2097.308594 1492.640625 2092.738281 1487.03125 C 2083.351562 1475.488281 2085.078125 1458.519531 2096.621094 1449.128906 C 2121.960938 1428.488281 2163.210938 1460.691406 2141.949219 1498.839844 C 2129.171875 1521.796875 2098.839844 1533.78125 2034.199219 1527.570312 L 2017.03125 1514.539062 "/>
<path fill-rule="evenodd" fill="rgb(19.993591%, 39.988708%, 39.988708%)" fill-opacity="1" d="M 1729.980469 1592.101562 C 1827.53125 1628.410156 1954.898438 1520.496094 1988.460938 1557.25 C 1980.488281 1565.53125 1975.589844 1576.800781 1975.589844 1589.207031 C 1975.589844 1614.691406 1996.25 1635.347656 2021.730469 1635.347656 C 2091.910156 1635.394531 2102.628906 1486.921875 1956.878906 1516.050781 C 1882.929688 1530.828125 1797.691406 1594.667969 1729.980469 1592.101562 "/>
<path fill-rule="evenodd" fill="rgb(19.993591%, 39.988708%, 39.988708%)" fill-opacity="1" d="M 1801.738281 1597.605469 C 1883.46875 1589.644531 1894.308594 1602.207031 1895.058594 1615.394531 C 1888.398438 1616.210938 1882.019531 1619.503906 1877.449219 1625.121094 C 1868.058594 1636.652344 1869.789062 1653.621094 1881.328125 1663.015625 C 1906.671875 1683.652344 1947.921875 1651.457031 1926.660156 1613.300781 C 1913.878906 1590.351562 1883.550781 1578.363281 1818.910156 1584.574219 L 1801.738281 1597.605469 "/>
<path fill-rule="evenodd" fill="rgb(19.993591%, 39.988708%, 39.988708%)" fill-opacity="1" d="M 1509.578125 1519.460938 C 1607.128906 1483.160156 1734.5 1591.066406 1768.058594 1554.316406 C 1760.089844 1546.03125 1755.191406 1534.761719 1755.191406 1522.355469 C 1755.191406 1496.871094 1775.851562 1476.21875 1801.328125 1476.21875 C 1871.511719 1476.171875 1882.230469 1624.640625 1736.480469 1595.511719 C 1662.53125 1580.734375 1577.289062 1516.898438 1509.578125 1519.460938 "/>
<path fill-rule="evenodd" fill="rgb(19.993591%, 39.988708%, 39.988708%)" fill-opacity="1" d="M 1581.339844 1513.957031 C 1663.070312 1521.917969 1673.910156 1509.355469 1674.660156 1496.171875 C 1668 1495.351562 1661.621094 1492.058594 1657.050781 1486.441406 C 1647.660156 1474.910156 1649.390625 1457.941406 1660.929688 1448.550781 C 1686.269531 1427.910156 1727.519531 1460.109375 1706.261719 1498.261719 C 1693.480469 1521.214844 1663.148438 1533.199219 1598.511719 1526.988281 L 1581.339844 1513.957031 "/>
<path fill-rule="evenodd" fill="rgb(19.993591%, 39.988708%, 39.988708%)" fill-opacity="1" d="M 1294.300781 1591.519531 C 1391.839844 1627.828125 1519.210938 1519.914062 1552.769531 1556.667969 C 1544.800781 1564.949219 1539.898438 1576.21875 1539.898438 1588.625 C 1539.898438 1614.109375 1560.558594 1634.765625 1586.039062 1634.765625 C 1656.21875 1634.8125 1666.941406 1486.339844 1521.191406 1515.46875 C 1447.238281 1530.246094 1362 1594.085938 1294.300781 1591.519531 "/>
<path fill-rule="evenodd" fill="rgb(19.993591%, 39.988708%, 39.988708%)" fill-opacity="1" d="M 1366.050781 1597.023438 C 1447.78125 1589.066406 1458.621094 1601.625 1459.371094 1614.8125 C 1452.710938 1615.628906 1446.328125 1618.921875 1441.769531 1624.539062 C 1432.371094 1636.070312 1434.101562 1653.039062 1445.640625 1662.433594 C 1470.980469 1683.070312 1512.230469 1650.875 1490.96875 1612.71875 C 1478.199219 1589.769531 1447.871094 1577.78125 1383.230469 1583.992188 L 1366.050781 1597.023438 "/>
<path fill-rule="evenodd" fill="rgb(19.993591%, 39.988708%, 39.988708%)" fill-opacity="1" d="M 1654.980469 1583.054688 C 1804.660156 1671.734375 1696.539062 1732.453125 1691.398438 1665.621094 C 1689.738281 1643.976562 1681.328125 1615.316406 1654.980469 1583.054688 "/>
<path fill-rule="evenodd" fill="rgb(19.993591%, 39.988708%, 39.988708%)" fill-opacity="1" d="M 1732.039062 1612.597656 C 1834.308594 1753.34375 1884.671875 1640.023438 1817.648438 1641.152344 C 1795.949219 1641.519531 1766.628906 1635.824219 1732.039062 1612.597656 "/>
<path fill-rule="evenodd" fill="rgb(19.993591%, 39.988708%, 39.988708%)" fill-opacity="1" d="M 2079.679688 1569.78125 C 2100.78125 1709.707031 2179.589844 1646.765625 2130.78125 1622.46875 C 2114.980469 1614.601562 2095.941406 1599.503906 2079.679688 1569.78125 "/>
<path fill-rule="evenodd" fill="rgb(19.993591%, 39.988708%, 39.988708%)" fill-opacity="1" d="M 2146.601562 1599.273438 C 2206.199219 1692.941406 2242.730469 1622.753906 2200 1620.832031 C 2186.160156 1620.210938 2167.710938 1615.429688 2146.601562 1599.273438 "/>
<path fill-rule="evenodd" fill="rgb(19.993591%, 39.988708%, 39.988708%)" fill-opacity="1" d="M 2253.890625 1631.523438 C 2259.851562 1631.523438 2264.691406 1626.6875 2264.691406 1620.726562 C 2264.691406 1614.761719 2259.851562 1609.929688 2253.890625 1609.929688 C 2247.929688 1609.929688 2243.089844 1614.761719 2243.089844 1620.726562 C 2243.089844 1626.6875 2247.929688 1631.523438 2253.890625 1631.523438 "/>
<path fill-rule="evenodd" fill="rgb(19.993591%, 39.988708%, 39.988708%)" fill-opacity="1" d="M 1868.101562 1533.738281 C 1956.878906 1384.121094 2017.53125 1492.28125 1950.691406 1497.371094 C 1929.039062 1499.019531 1900.378906 1507.40625 1868.101562 1533.738281 "/>
<path fill-rule="evenodd" fill="rgb(19.993591%, 39.988708%, 39.988708%)" fill-opacity="1" d="M 1422.988281 1543.125 C 1591.449219 1499.660156 1504.53125 1411.21875 1480.980469 1473.980469 C 1473.351562 1494.300781 1457.289062 1519.484375 1422.988281 1543.125 "/>
<path fill-rule="evenodd" fill="rgb(19.993591%, 39.988708%, 39.988708%)" fill-opacity="1" d="M 1587.941406 1478.410156 C 1596.761719 1478.410156 1603.921875 1471.25 1603.921875 1462.429688 C 1603.921875 1453.601562 1596.761719 1446.449219 1587.941406 1446.449219 C 1579.109375 1446.449219 1571.960938 1453.601562 1571.960938 1462.429688 C 1571.960938 1471.25 1579.109375 1478.410156 1587.941406 1478.410156 "/>
<path fill-rule="evenodd" fill="rgb(19.993591%, 39.988708%, 39.988708%)" fill-opacity="1" d="M 1631.300781 1679.878906 C 1638.078125 1679.878906 1643.578125 1674.382812 1643.578125 1667.601562 C 1643.578125 1660.820312 1638.078125 1655.320312 1631.300781 1655.320312 C 1624.511719 1655.320312 1619.019531 1660.820312 1619.019531 1667.601562 C 1619.019531 1674.382812 1624.511719 1679.878906 1631.300781 1679.878906 "/>
<path fill-rule="evenodd" fill="rgb(19.993591%, 39.988708%, 39.988708%)" fill-opacity="1" d="M 1218.421875 1616.5625 C 1204.460938 1879.464844 1047.21875 1777.050781 1133.238281 1723.300781 C 1161.101562 1705.894531 1193.640625 1674.527344 1218.421875 1616.5625 "/>
<path fill-rule="evenodd" fill="rgb(19.993591%, 39.988708%, 39.988708%)" fill-opacity="1" d="M 1283.269531 1616.5625 C 1297.230469 1879.464844 1454.46875 1777.050781 1368.449219 1723.300781 C 1340.589844 1705.894531 1308.050781 1674.527344 1283.269531 1616.5625 "/>
<path fill-rule="evenodd" fill="rgb(19.993591%, 39.988708%, 39.988708%)" fill-opacity="1" d="M 1250.839844 1706.519531 C 1243 1706.519531 1236.648438 1700.164062 1236.648438 1692.324219 C 1236.648438 1684.484375 1243 1678.128906 1250.839844 1678.128906 C 1258.679688 1678.128906 1265.039062 1684.484375 1265.039062 1692.324219 C 1265.039062 1700.164062 1258.679688 1706.519531 1250.839844 1706.519531 "/>
<path fill-rule="evenodd" fill="rgb(19.993591%, 39.988708%, 39.988708%)" fill-opacity="1" d="M 1250.839844 1855.40625 C 1243 1855.40625 1236.648438 1849.050781 1236.648438 1841.210938 C 1236.648438 1833.371094 1243 1827.015625 1250.839844 1827.015625 C 1258.679688 1827.015625 1265.039062 1833.371094 1265.039062 1841.210938 C 1265.039062 1849.050781 1258.679688 1855.40625 1250.839844 1855.40625 "/>
</svg>
